<svg version="1.1" id="Layer_1" xmlns="http://www.w3.org/2000/svg" xmlns:xlink="http://www.w3.org/1999/xlink" x="0px" y="0px"
	 width="100%" viewBox="0 0 60 60" enable-background="new 0 0 60 60" xml:space="preserve">
<path fill="#000000" opacity="1.000000" stroke="none" 
	d="
M42.001724,61.000000 
	C28.001308,61.000000 14.501357,61.000000 1.001055,61.000000 
	C1.000703,41.000542 1.000703,21.001083 1.000352,1.001218 
	C20.999386,1.000812 40.998772,1.000812 60.998619,1.000406 
	C60.999077,20.999313 60.999077,40.998627 60.999538,60.998970 
	C54.834064,61.000000 48.668129,61.000000 42.001724,61.000000 
M13.250379,30.701658 
	C16.330320,39.488331 22.726620,43.505665 32.246395,43.232170 
	C30.932821,47.261463 29.774220,50.815395 28.144524,55.814373 
	C31.056993,54.724419 32.732601,54.528130 33.817936,53.623596 
	C43.216763,45.790462 49.800648,36.567471 49.066502,23.470333 
	C48.655285,16.134308 43.725746,9.330338 36.426430,7.173475 
	C29.712961,5.189724 20.078392,8.283190 16.226654,13.341112 
	C12.382322,18.389311 12.933571,24.133499 13.250379,30.701658 
z"/>
<path fill="#FB450C" opacity="1.000000" stroke="none" 
	d="
M13.146343,30.281994 
	C12.933571,24.133499 12.382322,18.389311 16.226654,13.341112 
	C20.078392,8.283190 29.712961,5.189724 36.426430,7.173475 
	C43.725746,9.330338 48.655285,16.134308 49.066502,23.470333 
	C49.800648,36.567471 43.216763,45.790462 33.817936,53.623596 
	C32.732601,54.528130 31.056993,54.724419 28.144524,55.814373 
	C29.774220,50.815395 30.932821,47.261463 32.246395,43.232170 
	C22.726620,43.505665 16.330320,39.488331 13.146343,30.281994 
z"/>
</svg>